<svg height="503.60656pt" viewBox="0 0 503.60656 503.60656" width="503.60656pt" xmlns="http://www.w3.org/2000/svg"><path d="m33.222656 67.148438h167.867188v159.472656h-167.867188zm0 0" fill="#cfd8dc"/><path d="m301.8125 67.148438h167.867188v159.472656h-167.867188zm0 0" fill="#cfd8dc"/><path d="m33.222656 67.148438h142.6875v159.472656h-142.6875zm0 0" fill="#f5f5f5"/><path d="m301.8125 67.148438h142.6875v159.472656h-142.6875zm0 0" fill="#f5f5f5"/><path d="m16.433594 226.621094h470.035156c4.632812 0 8.390625 3.757812 8.390625 8.394531v218.230469c0 4.636718-3.757813 8.394531-8.390625 8.394531h-470.035156c-4.636719 0-8.394532-3.757813-8.394532-8.394531v-218.230469c0-4.636719 3.757813-8.394531 8.394532-8.394531zm0 0" fill="#1566c0"/><path d="m16.433594 226.621094h444.851562c4.636719 0 8.394532 3.757812 8.394532 8.394531v218.230469c0 4.636718-3.757813 8.394531-8.394532 8.394531h-444.851562c-4.636719 0-8.394532-3.757813-8.394532-8.394531v-218.230469c0-4.636719 3.757813-8.394531 8.394532-8.394531zm0 0" fill="#02a9f4"/><path d="m24.828125 461.640625h50.359375v25.179687c0 4.636719-3.757812 8.394532-8.390625 8.394532h-33.574219c-4.636718 0-8.394531-3.757813-8.394531-8.394532zm0 0" fill="#424242"/><path d="m427.714844 461.640625h50.359375v25.179687c0 4.636719-3.757813 8.394532-8.394531 8.394532h-33.574219c-4.632813 0-8.390625-3.757813-8.390625-8.394532zm0 0" fill="#424242"/><path d="m50.007812 260.195312h402.886719c4.632813 0 8.390625 3.757813 8.390625 8.394532v151.082031c0 4.636719-3.757812 8.394531-8.390625 8.394531h-402.886719c-4.636718 0-8.394531-3.757812-8.394531-8.394531v-151.082031c0-4.636719 3.757813-8.394532 8.394531-8.394532zm0 0" fill="#00838f"/><path d="m50.007812 260.195312h377.707032c4.632812 0 8.390625 3.757813 8.390625 8.394532v151.082031c0 4.636719-3.757813 8.394531-8.390625 8.394531h-377.707032c-4.636718 0-8.394531-3.757812-8.394531-8.394531v-151.082031c0-4.636719 3.757813-8.394532 8.394531-8.394532zm0 0" fill="#00bcd4"/><path d="m125.550781 344.132812v33.570313c0 4.636719-3.757812 8.394531-8.394531 8.394531h-33.574219c-4.636719 0-8.394531-3.757812-8.394531-8.394531v-33.570313zm0 0" fill="#424242"/><path d="m125.550781 310.558594v33.574218h-50.363281v-33.574218c0-4.636719 3.757812-8.394532 8.394531-8.394532h33.574219c4.636719 0 8.394531 3.757813 8.394531 8.394532zm0 0" fill="#424242"/><path d="m192.695312 302.164062h117.507813c4.636719 0 8.394531 3.757813 8.394531 8.394532v33.574218c0 4.632813-3.757812 8.390626-8.394531 8.390626h-117.507813c-4.632812 0-8.390624-3.757813-8.390624-8.390626v-33.574218c0-4.636719 3.757812-8.394532 8.390624-8.394532zm0 0" fill="#558b30"/><path d="m192.695312 302.164062h92.328126c4.636718 0 8.394531 3.757813 8.394531 8.394532v33.574218c0 4.632813-3.757813 8.390626-8.394531 8.390626h-92.328126c-4.632812 0-8.390624-3.757813-8.390624-8.390626v-33.574218c0-4.636719 3.757812-8.394532 8.390624-8.394532zm0 0" fill="#8bc34a"/><g fill="#02a9f4"><path d="m66.796875 67.148438h33.570313v109.113281c0 9.273437-7.515626 16.789062-16.785157 16.789062s-16.785156-7.515625-16.785156-16.789062zm0 0"/><path d="m133.941406 67.148438h33.574219v109.113281c0 9.273437-7.515625 16.789062-16.785156 16.789062-9.273438 0-16.789063-7.515625-16.789063-16.789062zm0 0"/><path d="m335.386719 67.148438h33.570312v109.113281c0 9.273437-7.515625 16.789062-16.785156 16.789062s-16.785156-7.515625-16.785156-16.789062zm0 0"/><path d="m402.53125 67.148438h33.574219v109.113281c0 9.273437-7.515625 16.789062-16.785157 16.789062-9.273437 0-16.789062-7.515625-16.789062-16.789062zm0 0"/></g><path d="m243.058594 100.722656h16.785156c4.636719 0 8.394531 3.757813 8.394531 8.390625v117.507813h-33.574219v-117.507813c0-4.632812 3.757813-8.390625 8.394532-8.390625zm0 0" fill="#424242"/><path d="m201.441406 394.492188c-1.101562.027343-2.191406-.203126-3.1875-.671876-2.105468-.769531-3.761718-2.429687-4.535156-4.53125-.429688-1.011718-.65625-2.09375-.667969-3.191406.03125-2.222656.902344-4.351562 2.441407-5.957031.796874-.761719 1.734374-1.359375 2.761718-1.765625 2.042969-.839844 4.335938-.839844 6.378906 0 1.035157.386719 1.980469.988281 2.769532 1.765625 2.421875 2.398437 3.148437 6.027344 1.839844 9.175781-1.304688 3.148438-4.390626 5.195313-7.800782 5.175782zm0 0"/><path d="m251.804688 394.492188c-1.101563.027343-2.195313-.203126-3.191407-.671876-2.101562-.769531-3.761719-2.429687-4.53125-4.53125-.429687-1.011718-.660156-2.09375-.671875-3.191406.03125-2.222656.902344-4.351562 2.441406-5.957031.796876-.761719 1.738282-1.359375 2.761719-1.765625 2.042969-.839844 4.335938-.839844 6.378907 0 1.039062.386719 1.980468.988281 2.769531 1.765625 2.421875 2.398437 3.148437 6.027344 1.84375 9.175781-1.308594 3.148438-4.390625 5.195313-7.800781 5.175782zm0 0"/><path d="m302.164062 394.492188c-1.101562.027343-2.195312-.203126-3.191406-.671876-2.101562-.769531-3.757812-2.429687-4.53125-4.53125-.429687-1.011718-.65625-2.09375-.671875-3.191406.03125-2.222656.90625-4.351562 2.445313-5.957031.796875-.761719 1.734375-1.359375 2.757812-1.765625 2.046875-.839844 4.335938-.839844 6.378906 0 1.039063.386719 1.984376.988281 2.773438 1.765625 2.417969 2.398437 3.148438 6.027344 1.839844 9.175781-1.308594 3.148438-4.390625 5.195313-7.800782 5.175782zm0 0"/><path d="m16.785156 470.03125v16.789062c0 9.269532 7.515625 16.785157 16.789063 16.785157h33.574219c9.269531 0 16.785156-7.515625 16.785156-16.785157v-16.789062h335.738281v16.789062c0 9.269532 7.515625 16.785157 16.789063 16.785157h33.570312c9.273438 0 16.789062-7.515625 16.789062-16.785157v-16.789062c9.269532 0 16.785157-7.515625 16.785157-16.785156v-218.230469c0-9.269531-7.515625-16.785156-16.785157-16.785156h-8.394531v-142.691407h8.394531c4.636719 0 8.394532-3.757812 8.394532-8.390624 0-4.636719-3.757813-8.394532-8.394532-8.394532h-92.328124v-33.574218c0-13.90625-11.273438-25.179688-25.179688-25.179688h-235.015625c-13.910156 0-25.183594 11.273438-25.183594 25.179688v33.574218h-92.328125c-4.632812 0-8.390625 3.757813-8.390625 8.394532 0 4.632812 3.757813 8.390624 8.390625 8.390624h8.394532v142.691407h-8.394532c-9.269531 0-16.785156 7.515625-16.785156 16.785156v218.230469c0 9.269531 7.515625 16.785156 16.785156 16.785156zm50.363282 16.789062h-33.574219v-16.789062h33.574219zm402.882812 0h-33.570312v-16.789062h33.570312zm-8.390625-268.589843h-151.082031v-142.691407h16.785156v100.722657c0 13.90625 11.273438 25.179687 25.179688 25.179687s25.179687-11.273437 25.179687-25.179687v-100.722657h16.789063v100.722657c0 13.90625 11.273437 25.179687 25.179687 25.179687s25.179687-11.273437 25.179687-25.179687v-100.722657h16.789063zm-117.507813-142.691407h16.785157v100.722657c0 4.636719-3.757813 8.394531-8.394531 8.394531-4.632813 0-8.390626-3.757812-8.390626-8.394531zm83.933594 0v100.722657c0 4.636719-3.757812 8.394531-8.394531 8.394531s-8.394531-3.757812-8.394531-8.394531v-100.722657zm-50.363281-50.359374v33.574218h-92.324219c-4.636718 0-8.394531 3.757813-8.394531 8.394532 0 4.632812 3.757813 8.390624 8.394531 8.390624h8.390625v142.691407h-16.785156v-109.117188c0-9.269531-7.515625-16.785156-16.789063-16.785156v-75.542969h109.117188c4.632812 0 8.390625 3.757813 8.390625 8.394532zm-117.507813 83.933593v109.117188h-16.785156v-109.117188zm-134.292968-83.933593c0-4.636719 3.757812-8.394532 8.394531-8.394532h109.113281v75.542969c-9.269531 0-16.789062 7.515625-16.789062 16.785156v109.117188h-16.785156v-142.691407h8.394531c4.632812 0 8.390625-3.757812 8.390625-8.390624 0-4.636719-3.757813-8.394532-8.390625-8.394532h-92.328125zm16.785156 50.359374h16.789062v100.722657c0 4.636719-3.757812 8.394531-8.394531 8.394531s-8.394531-3.757812-8.394531-8.394531zm-50.359375 0v100.722657c0 4.636719-3.757813 8.394531-8.394531 8.394531-4.632813 0-8.394532-3.757812-8.394532-8.394531v-100.722657zm-50.359375 0h16.785156v100.722657c0 13.90625 11.273438 25.179687 25.179688 25.179687s25.179687-11.273437 25.179687-25.179687v-100.722657h16.789063v100.722657c0 13.90625 11.273437 25.179687 25.179687 25.179687s25.179688-11.273437 25.179688-25.179687v-100.722657h16.789062v142.691407h-151.082031zm-25.183594 159.476563h470.035156v218.230469h-470.035156zm0 0"/><path d="m50.359375 436.460938h402.886719c9.269531 0 16.785156-7.519532 16.785156-16.789063v-151.082031c0-9.269532-7.515625-16.785156-16.785156-16.785156h-402.886719c-9.269531 0-16.785156 7.515624-16.785156 16.785156v151.082031c0 9.269531 7.515625 16.789063 16.785156 16.789063zm0-167.871094h402.886719v151.082031h-402.886719zm0 0"/><path d="m117.507812 293.769531h-33.574218c-9.269532 0-16.785156 7.515625-16.785156 16.789063v67.144531c0 9.273437 7.515624 16.789063 16.785156 16.789063h33.574218c4.453126 0 8.722657-1.769532 11.871094-4.917969 3.148438-3.148438 4.917969-7.417969 4.917969-11.871094v-67.144531c0-4.453125-1.769531-8.722656-4.917969-11.871094-3.148437-3.148438-7.417968-4.917969-11.871094-4.917969zm0 16.789063v25.179687h-33.574218v-25.179687zm-33.574218 67.144531v-25.179687h33.574218v25.179687zm0 0"/><path d="m310.558594 293.769531h-117.507813c-9.273437 0-16.789062 7.515625-16.789062 16.789063v33.574218c0 9.269532 7.515625 16.785157 16.789062 16.785157h117.507813c9.269531 0 16.785156-7.515625 16.785156-16.785157v-33.574218c0-9.273438-7.515625-16.789063-16.785156-16.789063zm-117.507813 50.363281v-33.574218h117.507813v33.574218zm0 0"/><path d="m428.066406 285.378906c-4.636718 0-8.394531 3.757813-8.394531 8.390625v8.394531c0 4.636719 3.757813 8.394532 8.394531 8.394532 4.632813 0 8.394532-3.757813 8.394532-8.394532v-8.394531c0-4.632812-3.761719-8.390625-8.394532-8.390625zm0 0"/><path d="m428.066406 327.34375c-4.636718 0-8.394531 3.757812-8.394531 8.394531v58.753907c0 4.636718 3.757813 8.394531 8.394531 8.394531 4.632813 0 8.394532-3.757813 8.394532-8.394531v-58.753907c0-4.636719-3.761719-8.394531-8.394532-8.394531zm0 0"/></svg>