<svg height="512" viewBox="0 0 512 512" width="512" fill = "white" style="display:inline-block;position:relative;top:.1em;" xmlns="http://www.w3.org/2000/svg"><g id="Out_line" data-name="Out line"><path d="m40 480h48v16h-48z"/><path d="m136 480h48v16h-48z"/><path d="m232 480h48v16h-48z"/><path d="m328 480h48v16h-48z"/><path d="m424 480h48v16h-48z"/><path d="m16 440h16v16h-16z"/><path d="m16 360h16v16h-16z"/><path d="m16 264h16v16h-16z"/><path d="m16 168h16v16h-16z"/><path d="m488 392h-32v-40a7.9979 7.9979 0 0 0 -8-8h-40v-72a7.9979 7.9979 0 0 0 -8-8h-40v-48a7.9979 7.9979 0 0 0 -8-8h-40v-16a7.9979 7.9979 0 0 0 -8-8h-48a7.99786 7.99786 0 0 0 -8 8v16h-40a7.99786 7.99786 0 0 0 -8 8v48h-40a7.99786 7.99786 0 0 0 -8 8v56h-40a7.99786 7.99786 0 0 0 -8 8v48h-32v-368h-16v56h-16v16h16v80h-16v16h16v80h-16v16h16v80h-16v16h16v64h-16v16h16v16h16v-16h80v16h16v-16h80v16h16v-16h80v16h16v-16h80v16h16v-16h32a7.9979 7.9979 0 0 0 8-8v-48a7.9979 7.9979 0 0 0 -8-8zm-384 48h-32v-.56006c11.35-1.58984 21.93-6.52 32-13.88989zm0-35.42993c-10.37 9.60986-21.01 16.34985-32 18.59985v-23.16992h32zm48 35.42993h-32v-28.44995c11.02-11.17993 21.55-24.92017 32-39.86011zm0-96h-.53c-10.31 15.47-20.77 30.6001-31.47 43.46v4.54a7.96036 7.96036 0 0 0 -.83-3.55c.28-.32983.55-.65991.83-.99v-43.46h31.47c.18005-.27.36005-.53.53-.8zm16-64h27.53c-9.45 12.2-18.56 25.52-27.53 39.01zm32 160h-32v-91.96q2.655-4.00488 5.32-8.06006c8.77-13.3 17.63-26.73 26.68-39.23zm48 0h-32v-159.89014c10.28-12.23 20.89-22.59985 32-29.71972zm0-208.07007c-11.3 5.67993-21.9 14.12012-32 24.36011v-32.29004h32zm48 208.07007h-32v-197.37988a50.16278 50.16278 0 0 1 32 0zm0-214.05a66.61768 66.61768 0 0 0 -32 0v-25.95h32zm48 214.05h-32v-189.60986c11.11 7.11987 21.72 17.48974 32 29.71972zm0-183.71c-10.1-10.24-20.69995-18.68018-32-24.36011v-7.92989h32zm48 23.71v39.01c-8.97-13.49-18.08008-26.81-27.53-39.01zm0 72v88h-32v-139.25c9.05 12.5 17.90991 25.92993 26.67993 39.23q2.67007 4.04991 5.32007 8.06c.2.2998.4.60986.6.90991a7.937 7.937 0 0 0 -.6 3.05009zm48 88h-32v-68.31006c10.45 14.93994 20.98 28.68018 32 39.86011zm0-52.54c-6.96-8.37012-13.83008-17.69995-20.61-27.46h20.61zm40 52.54h-24v-14.44995a76.1173 76.1173 0 0 0 24 12.18995zm0-19.26a74.61755 74.61755 0 0 1 -20.15-12.74h20.15z"/><path d="m16 72h16v16h-16z"/><path d="m151.47 344h.53v-.8c-.17.27-.35.53-.53.8zm-32.3 44.45a7.96036 7.96036 0 0 1 .83 3.55v-4.54c-.28.33-.55.66012-.83.99z"/><path d="m392 348.04v3.96a7.937 7.937 0 0 1 .6-3.05c-.2-.3001-.4-.61016-.6-.91z"/><path d="m120 387.46v4.54a7.96036 7.96036 0 0 0 -.83-3.55c.28-.32988.55-.66.83-.99z"/><path d="m152 343.2v.8h-.53c.18-.27.36-.53.53-.8z"/><path d="m408.53 344h-.53v-.8c.16992.27.35.53.53.8z"/><path d="m312 104v64h-16v-16h-32v16h-16v-64h16v32h32v-32z"/><path d="m272 104h16v16h-16z"/><path d="m104 104h16v208h-16z"/><path d="m88 72h48v16h-48z"/><path d="m440 104h16v208h-16z"/><path d="m424 72h48v16h-48z"/></g></svg>
