<svg id="Layer_1_1_" enable-background="new 0 0 64 64" height="512" viewBox="0 0 64 64" width="512" fill = "white" style="display:inline-block;position:relative;top:.1em;" xmlns="http://www.w3.org/2000/svg"><path d="m54.259 26.245c-.789-15.932-1.382-24.245-5.259-24.245-2.84 0-4.331 4.826-6.803 12.822-1.093 3.534-2.346 7.59-3.909 11.769-.018-.238-.036-.478-.054-.715-1.142-15.248-1.996-23.876-6.234-23.876s-5.092 8.628-6.234 23.877c-.018.237-.036.476-.054.715-1.563-4.179-2.817-8.235-3.909-11.769-2.472-7.997-3.963-12.823-6.803-12.823-3.877 0-4.47 8.313-5.259 24.245-.665 13.401-1.574 31.755-6.741 31.755h-1v2h2v2h2v-2h4v2h2v-2h4v2h2v-2h4v2h2v-2h4v2h2v-2h4v2h2v-2h4v2h2v-2h4v2h2v-2h4v2h2v-2h4v2h2v-2h2v-2h-1c-5.167 0-6.076-18.354-6.741-31.755zm-10.152-10.832c1.655-5.35 3.529-11.413 4.893-11.413 2.154 0 2.821 13.446 3.262 22.344.747 15.065 1.626 26.757 4.93 31.433-6.212-.685-11.318-3.025-15.543-6.395-1.599-5.223-2.406-12.833-3.006-20.217 2.313-5.559 4.025-11.094 5.464-15.752zm-27.107 42.587h-2.236c2.227-.815 4.278-1.862 6.179-3.089-1.044 1.941-2.332 3.089-3.943 3.089zm7.045-5.354c3.078-2.534 5.703-5.57 7.955-8.886 2.253 3.316 4.877 6.353 7.955 8.886.757 2.251 1.687 4.079 2.841 5.354h-21.592c1.154-1.275 2.084-3.103 2.841-5.354zm1.014-3.677c.925-4.047 1.517-8.894 1.983-14.001 1.116 2.364 2.36 4.695 3.75 6.929-1.684 2.556-3.581 4.949-5.733 7.072zm8.15-7.072c1.39-2.235 2.634-4.565 3.75-6.929.466 5.107 1.057 9.954 1.983 14.001-2.153-2.123-4.05-4.516-5.733-7.072zm9.848 13.014c1.901 1.227 3.952 2.275 6.179 3.089h-2.236c-1.611 0-2.899-1.148-3.943-3.089zm-15.297-28.885c.697-9.295 1.651-22.026 4.24-22.026s3.543 12.731 4.24 22.026c.12 1.595.24 3.194.366 4.784-1.319 3.115-2.836 6.22-4.606 9.164-1.77-2.945-3.287-6.05-4.606-9.164.126-1.589.246-3.189.366-4.784zm-16.022.318c.441-8.898 1.108-22.344 3.262-22.344 1.364 0 3.238 6.063 4.893 11.413 1.44 4.658 3.152 10.193 5.465 15.751-.6 7.384-1.407 14.994-3.006 20.217-4.225 3.37-9.331 5.71-15.543 6.395 3.304-4.675 4.183-16.367 4.929-31.432z"/></svg>
