<svg id="_x31__x2C_5" enable-background="new 0 0 24 24" height="512" viewBox="0 0 24 24" width="512" fill = "white" style="display:inline-block;position:relative;top:.1em;" xmlns="http://www.w3.org/2000/svg"><path d="m5.25 17h-2c-.965 0-1.75-.785-1.75-1.75v-7.5c0-.965.785-1.75 1.75-1.75h2c.965 0 1.75.785 1.75 1.75v7.5c0 .965-.785 1.75-1.75 1.75zm-2-9.5c-.138 0-.25.112-.25.25v7.5c0 .138.112.25.25.25h2c.138 0 .25-.112.25-.25v-7.5c0-.138-.112-.25-.25-.25z"/><path d="m4.25 7.5c-.414 0-.75-.336-.75-.75v-6c0-.414.336-.75.75-.75s.75.336.75.75v6c0 .414-.336.75-.75.75z"/><path d="m4.25 24c-.414 0-.75-.336-.75-.75v-7c0-.414.336-.75.75-.75s.75.336.75.75v7c0 .414-.336.75-.75.75z"/><path d="m13.25 20h-2c-.965 0-1.75-.785-1.75-1.75v-7.5c0-.965.785-1.75 1.75-1.75h2c.965 0 1.75.785 1.75 1.75v7.5c0 .965-.785 1.75-1.75 1.75zm-2-9.5c-.138 0-.25.112-.25.25v7.5c0 .138.112.25.25.25h2c.138 0 .25-.112.25-.25v-7.5c0-.138-.112-.25-.25-.25z"/><path d="m12.25 10.5c-.414 0-.75-.336-.75-.75v-9c0-.414.336-.75.75-.75s.75.336.75.75v9c0 .414-.336.75-.75.75z"/><path d="m12.25 24c-.414 0-.75-.336-.75-.75v-4c0-.414.336-.75.75-.75s.75.336.75.75v4c0 .414-.336.75-.75.75z"/><path d="m21.25 14h-2c-.965 0-1.75-.785-1.75-1.75v-7.5c0-.965.785-1.75 1.75-1.75h2c.965 0 1.75.785 1.75 1.75v7.5c0 .965-.785 1.75-1.75 1.75zm-2-9.5c-.138 0-.25.112-.25.25v7.5c0 .138.112.25.25.25h2c.138 0 .25-.112.25-.25v-7.5c0-.138-.112-.25-.25-.25z"/><path d="m20.25 4.5c-.414 0-.75-.336-.75-.75v-3c0-.414.336-.75.75-.75s.75.336.75.75v3c0 .414-.336.75-.75.75z"/><path d="m20.25 24c-.414 0-.75-.336-.75-.75v-10c0-.414.336-.75.75-.75s.75.336.75.75v10c0 .414-.336.75-.75.75z"/></svg>
