<svg id="Capa_1" enable-background="new 0 0 512 512" height="512" viewBox="0 0 512 512" width="512" fill="white" style="display:inline-block;position:relative;top:.1em;" xmlns="http://www.w3.org/2000/svg"><g><path d="m115.333 467h-70.333v-459.5c0-4.143-3.358-7.5-7.5-7.5h-30c-4.142 0-7.5 3.357-7.5 7.5s3.358 7.5 7.5 7.5h22.5v23.917h-7.5c-4.142 0-7.5 3.357-7.5 7.5s3.358 7.5 7.5 7.5h7.5v23.916h-22.5c-4.142 0-7.5 3.357-7.5 7.5s3.358 7.5 7.5 7.5h22.5v23.917h-7.5c-4.142 0-7.5 3.357-7.5 7.5s3.358 7.5 7.5 7.5h7.5v23.917h-22.5c-4.142 0-7.5 3.357-7.5 7.5s3.358 7.5 7.5 7.5h22.5v23.916h-7.5c-4.142 0-7.5 3.357-7.5 7.5s3.358 7.5 7.5 7.5h7.5v23.917h-22.5c-4.142 0-7.5 3.357-7.5 7.5s3.358 7.5 7.5 7.5h22.5v23.917h-7.5c-4.142 0-7.5 3.357-7.5 7.5s3.358 7.5 7.5 7.5h7.5v23.916h-22.5c-4.142 0-7.5 3.357-7.5 7.5s3.358 7.5 7.5 7.5h22.5v23.917h-7.5c-4.142 0-7.5 3.357-7.5 7.5s3.358 7.5 7.5 7.5h7.5v23.917h-22.5c-4.142 0-7.5 3.357-7.5 7.5s3.358 7.5 7.5 7.5h22.5v23.916h-7.5c-4.142 0-7.5 3.357-7.5 7.5s3.358 7.5 7.5 7.5h7.5v23.917h-22.5c-4.142 0-7.5 3.357-7.5 7.5s3.358 7.5 7.5 7.5h22.5v22.5c0 4.143 3.358 7.5 7.5 7.5s7.5-3.357 7.5-7.5v-22.5h62.833v22.5c0 4.143 3.358 7.5 7.5 7.5s7.5-3.357 7.5-7.5v-30c0-4.143-3.357-7.5-7.5-7.5z"/><path d="m504.5 467h-359.167c-4.142 0-7.5 3.357-7.5 7.5s3.358 7.5 7.5 7.5h40.333v22.5c0 4.143 3.358 7.5 7.5 7.5s7.5-3.357 7.5-7.5v-22.5h62.834v22.5c0 4.143 3.358 7.5 7.5 7.5s7.5-3.357 7.5-7.5v-22.5h62.833v22.5c0 4.143 3.358 7.5 7.5 7.5s7.5-3.357 7.5-7.5v-22.5h62.833v22.5c0 4.143 3.358 7.5 7.5 7.5s7.5-3.357 7.5-7.5v-22.5h62.834v22.5c0 4.143 3.358 7.5 7.5 7.5s7.5-3.357 7.5-7.5v-30c0-4.143-3.358-7.5-7.5-7.5z"/><path d="m115.333 369.708c-14.865 0-26.958 12.094-26.958 26.959 0 14.864 12.094 26.958 26.958 26.958s26.958-12.094 26.958-26.958c.001-14.865-12.093-26.959-26.958-26.959zm0 38.917c-6.594 0-11.958-5.364-11.958-11.958s5.365-11.959 11.958-11.959 11.958 5.365 11.958 11.959-5.364 11.958-11.958 11.958z"/><path d="m115.333 345.792c14.865 0 26.958-12.094 26.958-26.959 0-14.864-12.093-26.958-26.958-26.958s-26.958 12.094-26.958 26.958c0 14.865 12.094 26.959 26.958 26.959zm0-38.917c6.594 0 11.958 5.364 11.958 11.958s-5.364 11.959-11.958 11.959-11.958-5.365-11.958-11.959 5.365-11.958 11.958-11.958z"/><path d="m193.167 384.708c14.865 0 26.958-12.094 26.958-26.958s-12.094-26.958-26.958-26.958-26.958 12.094-26.958 26.958 12.093 26.958 26.958 26.958zm0-38.916c6.594 0 11.958 5.364 11.958 11.958s-5.365 11.958-11.958 11.958-11.958-5.364-11.958-11.958 5.364-11.958 11.958-11.958z"/><path d="m193.167 306.875c14.865 0 26.958-12.094 26.958-26.958 0-14.865-12.094-26.959-26.958-26.959s-26.958 12.094-26.958 26.959c-.001 14.864 12.093 26.958 26.958 26.958zm0-38.917c6.594 0 11.958 5.365 11.958 11.959s-5.365 11.958-11.958 11.958-11.958-5.364-11.958-11.958 5.364-11.959 11.958-11.959z"/><path d="m271 423.625c14.865 0 26.958-12.094 26.958-26.958 0-14.865-12.094-26.959-26.958-26.959s-26.958 12.094-26.958 26.959c0 14.864 12.093 26.958 26.958 26.958zm0-38.917c6.594 0 11.958 5.365 11.958 11.959s-5.365 11.958-11.958 11.958-11.958-5.364-11.958-11.958 5.364-11.959 11.958-11.959z"/><path d="m271 267.958c14.865 0 26.958-12.094 26.958-26.958s-12.093-26.958-26.958-26.958-26.958 12.094-26.958 26.958 12.093 26.958 26.958 26.958zm0-38.916c6.594 0 11.958 5.364 11.958 11.958s-5.365 11.958-11.958 11.958-11.958-5.364-11.958-11.958 5.364-11.958 11.958-11.958z"/><path d="m348.833 306.875c14.865 0 26.958-12.094 26.958-26.958 0-14.865-12.093-26.959-26.958-26.959s-26.958 12.094-26.958 26.959c0 14.864 12.094 26.958 26.958 26.958zm0-38.917c6.594 0 11.958 5.365 11.958 11.959s-5.364 11.958-11.958 11.958-11.958-5.364-11.958-11.958 5.365-11.959 11.958-11.959z"/><path d="m387.75 229.042c14.865 0 26.958-12.094 26.958-26.959 0-14.864-12.094-26.958-26.958-26.958s-26.958 12.094-26.958 26.958c0 14.865 12.093 26.959 26.958 26.959zm0-38.917c6.594 0 11.958 5.364 11.958 11.958s-5.365 11.959-11.958 11.959-11.958-5.365-11.958-11.959 5.364-11.958 11.958-11.958z"/><path d="m387.75 151.208c14.865 0 26.958-12.094 26.958-26.958s-12.094-26.958-26.958-26.958-26.958 12.094-26.958 26.958 12.093 26.958 26.958 26.958zm0-38.916c6.594 0 11.958 5.364 11.958 11.958s-5.365 11.958-11.958 11.958-11.958-5.364-11.958-11.958 5.364-11.958 11.958-11.958z"/><path d="m465.583 190.125c14.865 0 26.958-12.094 26.958-26.958 0-14.865-12.093-26.959-26.958-26.959s-26.958 12.094-26.958 26.959c0 14.864 12.094 26.958 26.958 26.958zm0-38.917c6.594 0 11.958 5.365 11.958 11.959s-5.364 11.958-11.958 11.958-11.958-5.364-11.958-11.958 5.365-11.959 11.958-11.959z"/><path d="m465.583 345.792c14.865 0 26.958-12.094 26.958-26.959 0-14.864-12.093-26.958-26.958-26.958s-26.958 12.094-26.958 26.958c0 14.865 12.094 26.959 26.958 26.959zm0-38.917c6.594 0 11.958 5.364 11.958 11.958s-5.364 11.959-11.958 11.959-11.958-5.365-11.958-11.959 5.365-11.958 11.958-11.958z"/><path d="m465.583 73.375c14.865 0 26.958-12.094 26.958-26.958 0-14.865-12.093-26.959-26.958-26.959s-26.958 12.094-26.958 26.959c0 14.864 12.094 26.958 26.958 26.958zm0-38.917c6.594 0 11.958 5.365 11.958 11.959s-5.364 11.958-11.958 11.958-11.958-5.364-11.958-11.958 5.365-11.959 11.958-11.959z"/></g></svg>
